HIERARCHY
ROOT joint_Root
{
	OFFSET 0.0 0.0 0.0
	CHANNELS 6 Xposition Yposition Zposition Zrotation Xrotation Yrotation 
	JOINT Hips
	{
		OFFSET -0.726466 93.3139 -2.00062
		CHANNELS 6 Xposition Yposition Zposition Zrotation Xrotation Yrotation 
		JOINT Spine
		{
			OFFSET 15.7357 0.0 0.0
			CHANNELS 6 Xposition Yposition Zposition Zrotation Xrotation Yrotation 
			JOINT Chest
			{
				OFFSET 8.98455 -0.406207 0.0
				CHANNELS 6 Xposition Yposition Zposition Zrotation Xrotation Yrotation 
				JOINT Neck
				{
					OFFSET 16.3773 0.0 0.0
					CHANNELS 6 Xposition Yposition Zposition Zrotation Xrotation Yrotation 
					JOINT Head
					{
						OFFSET 6.45672 0.0 0.0
						CHANNELS 6 Xposition Yposition Zposition Zrotation Xrotation Yrotation 
						End Site
						{
							OFFSET 0.0 0.0 0.0
						}
					}
				}
				JOINT Shoulder_L
				{
					OFFSET 12.9942 -0.242716 4.98039
					CHANNELS 6 Xposition Yposition Zposition Zrotation Xrotation Yrotation 
					JOINT UpperArm_L
					{
						OFFSET 5.34809 0.0 0.0
						CHANNELS 6 Xposition Yposition Zposition Zrotation Xrotation Yrotation 
						JOINT LowerArm_L
						{
							OFFSET 24.3286 1.87007e-05 0.0
							CHANNELS 6 Xposition Yposition Zposition Zrotation Xrotation Yrotation 
							JOINT Hand_L
							{
								OFFSET 22.2916 0.0 0.0
								CHANNELS 6 Xposition Yposition Zposition Zrotation Xrotation Yrotation 
								End Site
								{
									OFFSET 0.0 0.0 0.0
								}
							}
						}
					}
				}
				JOINT Shoulder_R
				{
					OFFSET 12.9945 -0.242716 -4.98039
					CHANNELS 6 Xposition Yposition Zposition Zrotation Xrotation Yrotation 
					JOINT UpperArm_R
					{
						OFFSET -5.34813 0.0 0.0
						CHANNELS 6 Xposition Yposition Zposition Zrotation Xrotation Yrotation 
						JOINT LowerArm_R
						{
							OFFSET -24.3289 0.000322201 0.0
							CHANNELS 6 Xposition Yposition Zposition Zrotation Xrotation Yrotation 
							JOINT Hand_R
							{
								OFFSET -22.2915 -0.000108084 0.0
								CHANNELS 6 Xposition Yposition Zposition Zrotation Xrotation Yrotation 
								End Site
								{
									OFFSET 0.0 0.0 0.0
								}
							}
						}
					}
				}
			}
		}
		JOINT UpperLeg_L
		{
			OFFSET -2.19248 -6.46944 0.0
			CHANNELS 6 Xposition Yposition Zposition Zrotation Xrotation Yrotation 
			JOINT LowerLeg_L
			{
				OFFSET 39.0811 0.0 -1.23785e-05
				CHANNELS 6 Xposition Yposition Zposition Zrotation Xrotation Yrotation 
				JOINT Foot_L
				{
					OFFSET 40.9854 0.0 -1.26872e-05
					CHANNELS 6 Xposition Yposition Zposition Zrotation Xrotation Yrotation 
					JOINT Toes_L
					{
						OFFSET 11.7543 0.0 0.0
						CHANNELS 6 Xposition Yposition Zposition Zrotation Xrotation Yrotation 
						End Site
						{
							OFFSET 0.0 0.0 0.0
						}
					}
				}
			}
		}
		JOINT UpperLeg_R
		{
			OFFSET -2.19251 6.46944 0.0
			CHANNELS 6 Xposition Yposition Zposition Zrotation Xrotation Yrotation 
			JOINT LowerLeg_R
			{
				OFFSET -39.0811 -0.00228153 -0.0401928
				CHANNELS 6 Xposition Yposition Zposition Zrotation Xrotation Yrotation 
				JOINT Foot_R
				{
					OFFSET -40.9854 0.0 0.0
					CHANNELS 6 Xposition Yposition Zposition Zrotation Xrotation Yrotation 
					JOINT Toes_R
					{
						OFFSET -11.7543 0.0 0.0
						CHANNELS 6 Xposition Yposition Zposition Zrotation Xrotation Yrotation 
						End Site
						{
							OFFSET 0.0 0.0 0.0
						}
					}
				}
			}
		}
	}
}
MOTION
Frames:	5
Frame Time:	0.0333333
0.000000 0.000000 0.000000 0.000000 0.000000 -0.000000 0.752098 91.944500 -0.098670 87.789300 -1.959410 6.274480 15.735700 0.000005 -0.000001 93.063900 84.173800 -96.394300 8.984550 -0.406207 -0.000000 3.899960 0.734034 -6.678410 16.377300 -0.000001 -0.000001 -0.161861 -1.569520 2.382030 6.456720 -0.000001 -0.000000 -4.207600 -0.763966 -1.893800 12.994200 -0.242716 4.980390 -88.336200 -4.909040 -71.251000 5.348090 -0.000007 -0.000001 -5.384270 76.044900 -42.543100 24.328600 0.000019 0.000005 13.544700 0.042994 -89.821600 22.291600 -0.000001 0.000005 34.110500 5.579810 -32.039300 12.994500 -0.242716 -4.980390 92.503300 -5.855870 -66.804500 -5.348130 -0.000001 -0.000004 -68.428700 -57.020000 -98.187500 -24.328900 0.000322 -0.000009 1.212080 4.732500 -14.394100 -22.291500 -0.000108 -0.000004 17.994700 5.190970 2.943130 -2.192480 -6.469440 -0.000000 -169.750000 -18.547000 -2.143810 39.081100 -0.000007 -0.000012 -0.184357 0.397723 24.869500 40.985400 -0.000006 -0.000013 -5.288610 -2.207580 -64.480200 11.754300 -0.000000 0.000003 -0.000166 -0.001580 -16.637500 -2.192510 6.469440 -0.000001 172.177000 22.114900 -179.578000 -39.081100 -0.002282 -0.040193 0.031774 -0.072447 21.443500 -40.985400 0.000008 0.000006 -1.498650 4.604640 -62.336600 -11.754300 -0.000006 -0.000006 -0.002821 -0.038565 -18.141400
0.000000 0.000000 0.000000 0.000000 0.000000 -0.000000 0.755923 91.932900 -0.101324 87.813000 -2.010240 6.403150 15.735700 0.000005 -0.000001 92.789800 84.107500 -96.159200 8.984550 -0.406207 -0.000000 4.034160 0.682203 -6.755390 16.377300 -0.000001 -0.000001 -0.195395 -1.314790 2.148010 6.456720 -0.000001 -0.000000 -4.420480 -0.427970 -2.127000 12.994200 -0.242716 4.980390 -88.363000 -4.806600 -71.167500 5.348090 -0.000007 -0.000001 -6.349480 76.042300 -41.511800 24.328600 0.000019 0.000005 13.675300 0.052938 -89.782500 22.291600 -0.000001 0.000005 34.242100 5.577920 -32.140700 12.994500 -0.242716 -4.980390 92.386100 -5.614670 -66.931000 -5.348130 -0.000001 -0.000004 -71.299900 -56.677200 -98.494500 -24.328900 0.000322 -0.000009 0.885366 3.823190 -13.062800 -22.291500 -0.000108 -0.000004 18.302300 5.142210 4.128490 -2.192480 -6.469440 -0.000000 -169.743000 -18.522800 -2.034160 39.081100 -0.000007 -0.000012 -0.184420 0.396725 24.931800 40.985400 -0.000006 -0.000013 -5.298560 -2.281160 -64.520800 11.754300 -0.000000 0.000003 -0.000140 -0.001374 -16.629900 -2.192510 6.469440 -0.000001 172.102000 22.080100 -179.504000 -39.081100 -0.002282 -0.040193 0.031955 -0.072484 21.557800 -40.985400 0.000008 0.000006 -1.488860 4.624770 -62.384300 -11.754300 -0.000006 -0.000006 -0.002810 -0.038437 -18.136200
0.000000 0.000000 0.000000 0.000000 0.000000 -0.000000 0.783284 91.921300 -0.121280 87.845500 -2.258770 6.464720 15.735700 0.000005 -0.000001 92.550200 84.087700 -95.894000 8.984550 -0.406207 -0.000000 4.074240 0.632786 -6.702770 16.377300 -0.000001 -0.000001 -0.140926 -1.168070 2.074540 6.456720 -0.000001 -0.000000 -4.507700 -0.294321 -2.446320 12.994200 -0.242716 4.980390 -88.387300 -4.723360 -71.123700 5.348090 -0.000007 -0.000001 -7.228300 76.040500 -40.625800 24.328600 0.000019 0.000005 13.636300 0.071878 -89.703800 22.291600 -0.000001 0.000005 34.367300 5.574720 -32.308900 12.994500 -0.242716 -4.980390 92.328900 -5.490680 -66.972500 -5.348130 -0.000001 -0.000004 -71.686200 -56.198400 -98.535900 -24.328900 0.000322 -0.000009 0.673855 2.867720 -13.250900 -22.291500 -0.000108 -0.000004 18.443000 5.134320 4.315590 -2.192480 -6.469440 -0.000000 -169.759000 -18.572200 -1.947380 39.081100 -0.000007 -0.000012 -0.185747 0.398631 24.984000 40.985400 -0.000006 -0.000013 -5.328820 -2.451650 -64.582800 11.754300 -0.000000 0.000003 -0.000153 -0.001476 -16.633700 -2.192510 6.469440 -0.000001 172.015000 22.112300 -179.544000 -39.081100 -0.002282 -0.040193 0.032074 -0.072404 21.660900 -40.985400 0.000008 0.000006 -1.459670 4.921320 -62.392800 -11.754300 -0.000006 -0.000006 -0.002934 -0.039855 -18.193900
0.000000 0.000000 0.000000 0.000000 0.000000 -0.000000 0.824745 91.924500 -0.150195 87.847000 -2.673990 6.526650 15.735700 0.000005 -0.000001 92.419300 84.099400 -95.680100 8.984550 -0.406207 -0.000000 4.050280 0.602903 -6.535520 16.377300 -0.000001 -0.000001 -0.034818 -1.195650 2.163690 6.456720 -0.000001 -0.000000 -4.342330 -0.314593 -2.589830 12.994200 -0.242716 4.980390 -88.396300 -4.691340 -71.103200 5.348090 -0.000007 -0.000001 -7.210500 75.990900 -40.647000 24.328600 0.000019 0.000005 13.667000 0.085523 -89.648400 22.291600 -0.000001 0.000005 34.140600 5.571120 -32.495200 12.994500 -0.242716 -4.980390 92.362000 -5.568380 -66.969600 -5.348130 -0.000001 -0.000004 -70.093800 -55.670900 -98.469700 -24.328900 0.000322 -0.000009 0.497654 1.881770 -14.850200 -22.291500 -0.000108 -0.000004 17.891300 5.149270 3.960600 -2.192480 -6.469440 -0.000000 -169.744000 -18.704900 -1.796320 39.081100 -0.000007 -0.000012 -0.186406 0.400323 24.968800 40.985400 -0.000006 -0.000013 -5.366970 -2.717550 -64.626600 11.754300 -0.000000 0.000003 -0.000149 -0.001443 -16.632400 -2.192510 6.469440 -0.000001 172.014000 21.878200 -179.612000 -39.081100 -0.002282 -0.040193 0.031209 -0.070082 21.700900 -40.985400 0.000008 0.000006 -1.466990 5.100040 -62.286400 -11.754300 -0.000006 -0.000006 -0.002873 -0.039152 -18.165300
0.000000 0.000000 0.000000 0.000000 0.000000 -0.000000 0.858734 91.922500 -0.191661 87.862500 -3.129210 6.521010 15.735700 0.000005 -0.000001 92.391000 84.151800 -95.549700 8.984550 -0.406207 -0.000000 3.944550 0.592370 -6.330780 16.377300 -0.000001 -0.000001 0.215567 -1.367040 2.310350 6.456720 -0.000001 -0.000000 -4.255220 -0.501415 -2.511400 12.994200 -0.242716 4.980390 -88.395900 -4.694200 -71.109500 5.348090 -0.000007 -0.000001 -5.583090 76.009300 -42.246600 24.328600 0.000019 0.000005 13.715400 0.085324 -89.650500 22.291600 -0.000001 0.000005 34.166900 5.574160 -32.338100 12.994500 -0.242716 -4.980390 92.450500 -5.756760 -66.894200 -5.348130 -0.000001 -0.000004 -68.171200 -55.125400 -99.501800 -24.328900 0.000322 -0.000009 0.450025 1.452460 -17.255600 -22.291500 -0.000108 -0.000004 17.468900 5.171260 3.429780 -2.192480 -6.469440 -0.000000 -169.754000 -18.945800 -1.741580 39.081100 -0.000007 -0.000012 -0.183584 0.393882 24.990000 40.985400 -0.000006 -0.000013 -5.388770 -2.928450 -64.666900 11.754300 -0.000000 0.000003 -0.000153 -0.001479 -16.633700 -2.192510 6.469440 -0.000001 172.084000 21.434000 -179.739000 -39.081100 -0.002282 -0.040193 0.032308 -0.072944 21.674200 -40.985400 0.000008 0.000006 -1.417560 5.118290 -62.291700 -11.754300 -0.000006 -0.000006 -0.002929 -0.039793 -18.191400
